STARTFONT 2.1
FONT -DEC-NarkissTam-Medium-O-Normal--11-80-100-100-P-57-ISO8859-8
SIZE 8 100 100
FONTBOUNDINGBOX 11 11 -1 -2

STARTPROPERTIES 26
FONTNAME_REGISTRY ""
FAMILY_NAME "NarkissTam"
FOUNDRY "DEC"
WEIGHT_NAME "Medium"
SETWIDTH_NAME "Normal"
SLANT "O"
ADD_STYLE_NAME ""
PIXEL_SIZE 11
RESOLUTION_X 100
RESOLUTION_Y 100
SPACING "P"
AVERAGE_WIDTH 57
CHARSET_REGISTRY "ISO8859"
CHARSET_ENCODING "8"
CHARSET_COLLECTIONS "ASCII ISO8859-8 "
FULL_NAME "NarkissTam Oblique"
COPYRIGHT "Digital Israel"
CAP_HEIGHT 8
X_HEIGHT 6
_DEC_DEVICE_FONTNAMES "PS=NarkissTam-Oblique-ISOLatinHebrew"
QUAD_WIDTH 6
POINT_SIZE 80
WEIGHT 10
DEFAULT_CHAR 0
FONT_DESCENT 2
FONT_ASCENT 10
ENDPROPERTIES

CHARS 152

STARTCHAR space
ENCODING 32
SWIDTH 270 0
DWIDTH 3 0
BBX 1 1 0 0
BITMAP
00
ENDCHAR

STARTCHAR exclam
ENCODING 33
SWIDTH 360 0
DWIDTH 4 0
BBX 3 8 1 0
BITMAP
20
20
20
40
40
40
00
80
ENDCHAR

STARTCHAR quotedbl
ENCODING 34
SWIDTH 360 0
DWIDTH 4 0
BBX 3 3 1 5
BITMAP
A0
A0
A0
ENDCHAR

STARTCHAR numbersign
ENCODING 35
SWIDTH 630 0
DWIDTH 7 0
BBX 7 7 0 0
BITMAP
14
14
7E
28
FC
50
50
ENDCHAR

STARTCHAR dollar
ENCODING 36
SWIDTH 540 0
DWIDTH 6 0
BBX 6 10 0 -1
BITMAP
08
38
54
50
30
28
28
A8
70
40
ENDCHAR

STARTCHAR percent
ENCODING 37
SWIDTH 810 0
DWIDTH 9 0
BBX 7 8 1 0
BITMAP
72
94
E8
10
10
2E
52
9C
ENDCHAR

STARTCHAR ampersand
ENCODING 38
SWIDTH 720 0
DWIDTH 8 0
BBX 7 8 0 0
BITMAP
18
24
24
38
52
8C
88
74
ENDCHAR

STARTCHAR quoteright
ENCODING 39
SWIDTH 270 0
DWIDTH 3 0
BBX 2 3 1 5
BITMAP
40
40
80
ENDCHAR

STARTCHAR parenleft
ENCODING 40
SWIDTH 360 0
DWIDTH 4 0
BBX 4 10 0 -2
BITMAP
10
20
40
40
80
80
80
80
80
40
ENDCHAR

STARTCHAR parenright
ENCODING 41
SWIDTH 360 0
DWIDTH 4 0
BBX 4 10 0 -2
BITMAP
20
10
10
10
10
10
20
20
40
80
ENDCHAR

STARTCHAR asterisk
ENCODING 42
SWIDTH 360 0
DWIDTH 4 0
BBX 4 3 1 5
BITMAP
50
60
A0
ENDCHAR

STARTCHAR plus
ENCODING 43
SWIDTH 540 0
DWIDTH 6 0
BBX 4 5 1 1
BITMAP
20
20
F0
40
40
ENDCHAR

STARTCHAR comma
ENCODING 44
SWIDTH 270 0
DWIDTH 3 0
BBX 2 3 0 -2
BITMAP
40
40
80
ENDCHAR

STARTCHAR minus
ENCODING 45
SWIDTH 630 0
DWIDTH 7 0
BBX 5 1 1 3
BITMAP
F8
ENDCHAR

STARTCHAR period
ENCODING 46
SWIDTH 270 0
DWIDTH 3 0
BBX 1 1 1 0
BITMAP
80
ENDCHAR

STARTCHAR slash
ENCODING 47
SWIDTH 270 0
DWIDTH 3 0
BBX 4 8 0 0
BITMAP
10
10
20
20
40
40
80
80
ENDCHAR

STARTCHAR zero
ENCODING 48
SWIDTH 540 0
DWIDTH 6 0
BBX 6 8 0 0
BITMAP
38
64
44
84
84
88
98
70
ENDCHAR

STARTCHAR one
ENCODING 49
SWIDTH 540 0
DWIDTH 6 0
BBX 3 8 2 0
BITMAP
20
E0
40
40
40
80
80
80
ENDCHAR

STARTCHAR two
ENCODING 50
SWIDTH 540 0
DWIDTH 6 0
BBX 6 8 0 0
BITMAP
38
44
04
08
30
40
80
F8
ENDCHAR

STARTCHAR three
ENCODING 51
SWIDTH 540 0
DWIDTH 6 0
BBX 6 8 0 0
BITMAP
38
44
04
38
08
08
88
70
ENDCHAR

STARTCHAR four
ENCODING 52
SWIDTH 540 0
DWIDTH 6 0
BBX 6 8 0 0
BITMAP
04
0C
14
28
48
F8
10
10
ENDCHAR

STARTCHAR five
ENCODING 53
SWIDTH 540 0
DWIDTH 6 0
BBX 6 8 0 0
BITMAP
3C
20
40
78
04
84
88
70
ENDCHAR

STARTCHAR six
ENCODING 54
SWIDTH 540 0
DWIDTH 6 0
BBX 6 8 0 0
BITMAP
38
44
40
70
88
88
88
70
ENDCHAR

STARTCHAR seven
ENCODING 55
SWIDTH 540 0
DWIDTH 6 0
BBX 5 8 1 0
BITMAP
F8
08
10
20
40
40
80
80
ENDCHAR

STARTCHAR eight
ENCODING 56
SWIDTH 540 0
DWIDTH 6 0
BBX 6 8 0 0
BITMAP
38
44
44
78
88
88
88
70
ENDCHAR

STARTCHAR nine
ENCODING 57
SWIDTH 540 0
DWIDTH 6 0
BBX 6 8 0 0
BITMAP
38
44
44
44
3C
08
88
70
ENDCHAR

STARTCHAR colon
ENCODING 58
SWIDTH 270 0
DWIDTH 3 0
BBX 2 6 1 0
BITMAP
40
00
00
00
00
80
ENDCHAR

STARTCHAR semicolon
ENCODING 59
SWIDTH 270 0
DWIDTH 3 0
BBX 3 8 0 -2
BITMAP
20
00
00
00
00
40
40
80
ENDCHAR

STARTCHAR less
ENCODING 60
SWIDTH 540 0
DWIDTH 6 0
BBX 4 5 1 1
BITMAP
10
60
80
40
20
ENDCHAR

STARTCHAR equal
ENCODING 61
SWIDTH 630 0
DWIDTH 7 0
BBX 5 3 1 2
BITMAP
78
00
F0
ENDCHAR

STARTCHAR greater
ENCODING 62
SWIDTH 540 0
DWIDTH 6 0
BBX 4 5 1 1
BITMAP
40
20
10
60
80
ENDCHAR

STARTCHAR question
ENCODING 63
SWIDTH 540 0
DWIDTH 6 0
BBX 5 8 1 0
BITMAP
30
48
08
30
40
40
00
80
ENDCHAR

STARTCHAR at
ENCODING 64
SWIDTH 990 0
DWIDTH 11 0
BBX 10 9 0 -1
BITMAP
0F00
3080
4D40
5240
A240
A240
9D80
4000
3C00
ENDCHAR

STARTCHAR A
ENCODING 65
SWIDTH 630 0
DWIDTH 7 0
BBX 7 8 0 0
BITMAP
04
0C
14
14
24
7E
42
82
ENDCHAR

STARTCHAR B
ENCODING 66
SWIDTH 630 0
DWIDTH 7 0
BBX 7 8 0 0
BITMAP
3C
22
42
7C
44
84
8C
F8
ENDCHAR

STARTCHAR C
ENCODING 67
SWIDTH 720 0
DWIDTH 8 0
BBX 7 8 0 0
BITMAP
1C
22
40
40
80
82
84
78
ENDCHAR

STARTCHAR D
ENCODING 68
SWIDTH 720 0
DWIDTH 8 0
BBX 7 8 0 0
BITMAP
3C
22
22
42
44
84
88
F0
ENDCHAR

STARTCHAR E
ENCODING 69
SWIDTH 630 0
DWIDTH 7 0
BBX 7 8 0 0
BITMAP
3E
20
40
7C
40
80
80
F8
ENDCHAR

STARTCHAR F
ENCODING 70
SWIDTH 540 0
DWIDTH 6 0
BBX 7 8 0 0
BITMAP
3E
20
40
78
40
80
80
80
ENDCHAR

STARTCHAR G
ENCODING 71
SWIDTH 720 0
DWIDTH 8 0
BBX 8 8 0 0
BITMAP
1E
21
40
40
8E
82
84
78
ENDCHAR

STARTCHAR H
ENCODING 72
SWIDTH 720 0
DWIDTH 8 0
BBX 8 8 0 0
BITMAP
21
21
42
7E
42
84
84
84
ENDCHAR

STARTCHAR I
ENCODING 73
SWIDTH 270 0
DWIDTH 3 0
BBX 3 8 0 0
BITMAP
20
20
40
40
40
80
80
80
ENDCHAR

STARTCHAR J
ENCODING 74
SWIDTH 450 0
DWIDTH 5 0
BBX 6 8 0 0
BITMAP
04
04
08
08
08
90
90
60
ENDCHAR

STARTCHAR K
ENCODING 75
SWIDTH 630 0
DWIDTH 7 0
BBX 7 8 0 0
BITMAP
22
24
48
70
50
88
88
84
ENDCHAR

STARTCHAR L
ENCODING 76
SWIDTH 450 0
DWIDTH 5 0
BBX 4 8 0 0
BITMAP
20
20
40
40
40
80
80
F0
ENDCHAR

STARTCHAR M
ENCODING 77
SWIDTH 810 0
DWIDTH 9 0
BBX 8 8 0 0
BITMAP
21
23
63
55
55
9A
92
92
ENDCHAR

STARTCHAR N
ENCODING 78
SWIDTH 720 0
DWIDTH 8 0
BBX 8 8 0 0
BITMAP
21
21
52
52
52
8A
84
84
ENDCHAR

STARTCHAR O
ENCODING 79
SWIDTH 720 0
DWIDTH 8 0
BBX 8 8 0 0
BITMAP
1E
21
21
42
42
84
84
78
ENDCHAR

STARTCHAR P
ENCODING 80
SWIDTH 630 0
DWIDTH 7 0
BBX 7 8 0 0
BITMAP
3C
22
42
7C
40
80
80
80
ENDCHAR

STARTCHAR Q
ENCODING 81
SWIDTH 720 0
DWIDTH 8 0
BBX 8 9 0 -1
BITMAP
1E
21
21
42
42
94
8C
7C
02
ENDCHAR

STARTCHAR R
ENCODING 82
SWIDTH 630 0
DWIDTH 7 0
BBX 7 8 0 0
BITMAP
3C
22
42
7C
44
84
88
88
ENDCHAR

STARTCHAR S
ENCODING 83
SWIDTH 630 0
DWIDTH 7 0
BBX 7 8 0 0
BITMAP
1C
22
40
38
04
84
88
70
ENDCHAR

STARTCHAR T
ENCODING 84
SWIDTH 450 0
DWIDTH 5 0
BBX 5 8 1 0
BITMAP
F8
20
40
40
40
80
80
80
ENDCHAR

STARTCHAR U
ENCODING 85
SWIDTH 720 0
DWIDTH 8 0
BBX 8 8 0 0
BITMAP
21
21
42
42
42
84
84
78
ENDCHAR

STARTCHAR V
ENCODING 86
SWIDTH 630 0
DWIDTH 7 0
BBX 6 8 1 0
BITMAP
84
84
88
88
90
90
A0
40
ENDCHAR

STARTCHAR W
ENCODING 87
SWIDTH 900 0
DWIDTH 10 0
BBX 9 8 1 0
BITMAP
8880
8880
9900
9900
AA00
6600
4400
4400
ENDCHAR

STARTCHAR X
ENCODING 88
SWIDTH 630 0
DWIDTH 7 0
BBX 8 8 0 0
BITMAP
21
22
14
18
18
28
44
84
ENDCHAR

STARTCHAR Y
ENCODING 89
SWIDTH 630 0
DWIDTH 7 0
BBX 7 8 1 0
BITMAP
82
84
48
50
20
40
40
40
ENDCHAR

STARTCHAR Z
ENCODING 90
SWIDTH 630 0
DWIDTH 7 0
BBX 7 8 0 0
BITMAP
3E
04
08
10
20
40
80
F8
ENDCHAR

STARTCHAR bracketleft
ENCODING 91
SWIDTH 360 0
DWIDTH 4 0
BBX 6 10 0 -2
BITMAP
1C
10
20
20
20
40
40
40
80
E0
ENDCHAR

STARTCHAR backslash
ENCODING 92
SWIDTH 270 0
DWIDTH 3 0
BBX 2 8 1 0
BITMAP
80
80
80
80
40
40
40
40
ENDCHAR

STARTCHAR bracketright
ENCODING 93
SWIDTH 360 0
DWIDTH 4 0
BBX 6 10 -1 -2
BITMAP
1C
04
08
08
08
10
10
10
20
E0
ENDCHAR

STARTCHAR asciicircum
ENCODING 94
SWIDTH 540 0
DWIDTH 6 0
BBX 4 4 1 4
BITMAP
20
20
50
90
ENDCHAR

STARTCHAR underscore
ENCODING 95
SWIDTH 540 0
DWIDTH 6 0
BBX 6 1 0 -2
BITMAP
FC
ENDCHAR

STARTCHAR quoteleft
ENCODING 96
SWIDTH 270 0
DWIDTH 3 0
BBX 2 3 1 5
BITMAP
40
80
80
ENDCHAR

STARTCHAR a
ENCODING 97
SWIDTH 450 0
DWIDTH 5 0
BBX 5 6 0 0
BITMAP
70
08
78
90
90
68
ENDCHAR

STARTCHAR b
ENCODING 98
SWIDTH 450 0
DWIDTH 5 0
BBX 5 8 0 0
BITMAP
20
20
70
48
48
88
90
E0
ENDCHAR

STARTCHAR c
ENCODING 99
SWIDTH 450 0
DWIDTH 5 0
BBX 5 6 0 0
BITMAP
30
48
80
80
90
60
ENDCHAR

STARTCHAR d
ENCODING 100
SWIDTH 450 0
DWIDTH 5 0
BBX 6 8 0 0
BITMAP
04
04
38
48
88
90
90
70
ENDCHAR

STARTCHAR e
ENCODING 101
SWIDTH 450 0
DWIDTH 5 0
BBX 5 6 0 0
BITMAP
38
48
F0
80
90
60
ENDCHAR

STARTCHAR f
ENCODING 102
SWIDTH 360 0
DWIDTH 4 0
BBX 4 8 1 0
BITMAP
30
40
E0
40
40
80
80
80
ENDCHAR

STARTCHAR g
ENCODING 103
SWIDTH 450 0
DWIDTH 5 0
BBX 6 8 0 -2
BITMAP
1C
24
44
48
48
38
90
60
ENDCHAR

STARTCHAR h
ENCODING 104
SWIDTH 540 0
DWIDTH 6 0
BBX 6 8 0 0
BITMAP
20
20
58
64
44
88
88
88
ENDCHAR

STARTCHAR i
ENCODING 105
SWIDTH 180 0
DWIDTH 2 0
BBX 3 8 0 0
BITMAP
20
00
40
40
40
80
80
80
ENDCHAR

STARTCHAR j
ENCODING 106
SWIDTH 180 0
DWIDTH 2 0
BBX 4 10 0 -2
BITMAP
10
00
20
20
20
40
40
40
40
80
ENDCHAR

STARTCHAR k
ENCODING 107
SWIDTH 450 0
DWIDTH 5 0
BBX 5 8 0 0
BITMAP
20
20
48
50
60
A0
90
90
ENDCHAR

STARTCHAR l
ENCODING 108
SWIDTH 180 0
DWIDTH 2 0
BBX 3 8 0 0
BITMAP
20
20
40
40
40
80
80
80
ENDCHAR

STARTCHAR m
ENCODING 109
SWIDTH 720 0
DWIDTH 8 0
BBX 8 6 0 0
BITMAP
76
49
49
92
92
92
ENDCHAR

STARTCHAR n
ENCODING 110
SWIDTH 540 0
DWIDTH 6 0
BBX 6 6 0 0
BITMAP
58
64
44
88
88
88
ENDCHAR

STARTCHAR o
ENCODING 111
SWIDTH 540 0
DWIDTH 6 0
BBX 6 6 0 0
BITMAP
38
44
44
88
88
70
ENDCHAR

STARTCHAR p
ENCODING 112
SWIDTH 450 0
DWIDTH 5 0
BBX 6 8 0 -2
BITMAP
38
24
24
44
48
70
80
80
ENDCHAR

STARTCHAR q
ENCODING 113
SWIDTH 450 0
DWIDTH 5 0
BBX 5 8 0 -2
BITMAP
38
48
88
90
90
70
20
20
ENDCHAR

STARTCHAR r
ENCODING 114
SWIDTH 360 0
DWIDTH 4 0
BBX 5 6 0 0
BITMAP
58
60
40
80
80
80
ENDCHAR

STARTCHAR s
ENCODING 115
SWIDTH 450 0
DWIDTH 5 0
BBX 5 6 0 0
BITMAP
30
48
20
10
90
60
ENDCHAR

STARTCHAR t
ENCODING 116
SWIDTH 360 0
DWIDTH 4 0
BBX 4 8 1 0
BITMAP
20
20
F0
40
40
80
80
C0
ENDCHAR

STARTCHAR u
ENCODING 117
SWIDTH 450 0
DWIDTH 5 0
BBX 5 6 0 0
BITMAP
48
48
88
90
90
70
ENDCHAR

STARTCHAR v
ENCODING 118
SWIDTH 540 0
DWIDTH 6 0
BBX 5 6 1 0
BITMAP
88
90
90
A0
60
40
ENDCHAR

STARTCHAR w
ENCODING 119
SWIDTH 720 0
DWIDTH 8 0
BBX 7 6 1 0
BITMAP
92
92
92
B4
48
48
ENDCHAR

STARTCHAR x
ENCODING 120
SWIDTH 540 0
DWIDTH 6 0
BBX 6 6 0 0
BITMAP
24
28
10
30
48
88
ENDCHAR

STARTCHAR y
ENCODING 121
SWIDTH 450 0
DWIDTH 5 0
BBX 5 8 0 -2
BITMAP
48
48
50
50
20
20
40
80
ENDCHAR

STARTCHAR z
ENCODING 122
SWIDTH 450 0
DWIDTH 5 0
BBX 5 6 0 0
BITMAP
78
08
10
20
40
F0
ENDCHAR

STARTCHAR braceleft
ENCODING 123
SWIDTH 360 0
DWIDTH 4 0
BBX 4 10 1 -2
BITMAP
10
20
40
40
80
40
40
80
80
40
ENDCHAR

STARTCHAR bar
ENCODING 124
SWIDTH 270 0
DWIDTH 3 0
BBX 4 10 0 -2
BITMAP
10
10
20
20
20
40
40
40
80
80
ENDCHAR

STARTCHAR braceright
ENCODING 125
SWIDTH 360 0
DWIDTH 4 0
BBX 4 10 0 -2
BITMAP
20
10
10
20
10
20
20
20
40
80
ENDCHAR

STARTCHAR asciitilde
ENCODING 126
SWIDTH 630 0
DWIDTH 7 0
BBX 6 2 1 3
BITMAP
64
98
ENDCHAR

STARTCHAR cent
ENCODING 162
SWIDTH 630 0
DWIDTH 7 0
BBX 6 8 1 -1
BITMAP
08
38
54
90
A0
A8
70
40
ENDCHAR

STARTCHAR sterling
ENCODING 163
SWIDTH 540 0
DWIDTH 6 0
BBX 6 8 0 0
BITMAP
18
24
20
70
20
20
48
B0
ENDCHAR

STARTCHAR currency
ENCODING 164
SWIDTH 540 0
DWIDTH 6 0
BBX 6 6 0 1
BITMAP
24
38
48
48
70
90
ENDCHAR

STARTCHAR yen
ENCODING 165
SWIDTH 540 0
DWIDTH 6 0
BBX 6 8 0 0
BITMAP
24
24
28
30
78
20
F0
40
ENDCHAR

STARTCHAR brokenbar
ENCODING 166
SWIDTH 270 0
DWIDTH 3 0
BBX 3 10 0 -2
BITMAP
20
20
40
40
00
00
40
40
80
80
ENDCHAR

STARTCHAR section
ENCODING 167
SWIDTH 540 0
DWIDTH 6 0
BBX 6 10 0 -2
BITMAP
18
24
30
58
48
48
68
30
90
60
ENDCHAR

STARTCHAR dieresis
ENCODING 168
SWIDTH 270 0
DWIDTH 3 0
BBX 3 1 1 7
BITMAP
A0
ENDCHAR

STARTCHAR copyright
ENCODING 169
SWIDTH 900 0
DWIDTH 10 0
BBX 8 8 1 0
BITMAP
3C
42
99
A5
A1
9D
42
3C
ENDCHAR

STARTCHAR multiply
ENCODING 170
SWIDTH 540 0
DWIDTH 6 0
BBX 6 5 0 1
BITMAP
44
28
30
50
88
ENDCHAR

STARTCHAR guillemotleft
ENCODING 171
SWIDTH 720 0
DWIDTH 8 0
BBX 6 4 1 1
BITMAP
24
48
90
48
ENDCHAR

STARTCHAR logicalnot
ENCODING 172
SWIDTH 630 0
DWIDTH 7 0
BBX 5 3 1 2
BITMAP
F8
08
08
ENDCHAR

STARTCHAR hyphen
ENCODING 173
SWIDTH 540 0
DWIDTH 6 0
BBX 4 1 1 3
BITMAP
F0
ENDCHAR

STARTCHAR registered
ENCODING 174
SWIDTH 900 0
DWIDTH 10 0
BBX 8 8 1 0
BITMAP
3C
42
B9
A5
B9
A5
42
3C
ENDCHAR

STARTCHAR macron
ENCODING 175
SWIDTH 270 0
DWIDTH 3 0
BBX 3 1 1 7
BITMAP
E0
ENDCHAR

STARTCHAR degree
ENCODING 176
SWIDTH 360 0
DWIDTH 4 0
BBX 3 3 1 5
BITMAP
60
A0
C0
ENDCHAR

STARTCHAR plusminus
ENCODING 177
SWIDTH 540 0
DWIDTH 6 0
BBX 5 7 0 0
BITMAP
10
10
78
20
20
00
F0
ENDCHAR

STARTCHAR twosuperior
ENCODING 178
SWIDTH 270 0
DWIDTH 3 0
BBX 3 4 0 4
BITMAP
60
20
40
E0
ENDCHAR

STARTCHAR threesuperior
ENCODING 179
SWIDTH 270 0
DWIDTH 3 0
BBX 3 4 0 4
BITMAP
E0
40
20
C0
ENDCHAR

STARTCHAR acute
ENCODING 180
SWIDTH 270 0
DWIDTH 3 0
BBX 2 2 1 7
BITMAP
40
80
ENDCHAR

STARTCHAR mu
ENCODING 181
SWIDTH 450 0
DWIDTH 5 0
BBX 6 8 0 -2
BITMAP
24
24
44
48
48
B8
80
80
ENDCHAR

STARTCHAR paragraph
ENCODING 182
SWIDTH 540 0
DWIDTH 6 0
BBX 7 10 0 -2
BITMAP
1E
74
F4
E8
E8
50
50
50
A0
A0
ENDCHAR

STARTCHAR periodcentered
ENCODING 183
SWIDTH 270 0
DWIDTH 3 0
BBX 1 2 1 3
BITMAP
80
80
ENDCHAR

STARTCHAR cedilla
ENCODING 184
SWIDTH 270 0
DWIDTH 3 0
BBX 3 3 0 -2
BITMAP
40
20
C0
ENDCHAR

STARTCHAR onesuperior
ENCODING 185
SWIDTH 270 0
DWIDTH 3 0
BBX 3 4 0 4
BITMAP
20
E0
40
40
ENDCHAR

STARTCHAR divide
ENCODING 186
SWIDTH 540 0
DWIDTH 6 0
BBX 4 5 1 1
BITMAP
20
00
F0
00
40
ENDCHAR

STARTCHAR guillemotright
ENCODING 187
SWIDTH 720 0
DWIDTH 8 0
BBX 6 4 0 1
BITMAP
48
24
48
90
ENDCHAR

STARTCHAR onequarter
ENCODING 188
SWIDTH 810 0
DWIDTH 9 0
BBX 8 8 1 0
BITMAP
24
E4
48
48
12
26
2F
44
ENDCHAR

STARTCHAR onehalf
ENCODING 189
SWIDTH 810 0
DWIDTH 9 0
BBX 7 8 1 0
BITMAP
24
E4
48
48
16
22
24
4E
ENDCHAR

STARTCHAR threequarters
ENCODING 190
SWIDTH 810 0
DWIDTH 9 0
BBX 8 8 1 0
BITMAP
E4
44
28
C8
12
26
2F
44
ENDCHAR

STARTCHAR dblunderscore
ENCODING 223
SWIDTH 540 0
DWIDTH 6 0
BBX 6 4 0 -2
BITMAP
00
FC
00
FC
ENDCHAR

STARTCHAR aleph
ENCODING 224
SWIDTH 630 0
DWIDTH 7 0
BBX 6 7 1 0
BITMAP
24
24
54
58
90
88
88
ENDCHAR

STARTCHAR beth
ENCODING 225
SWIDTH 540 0
DWIDTH 6 0
BBX 6 7 0 0
BITMAP
70
08
08
08
10
10
F8
ENDCHAR

STARTCHAR gimmel
ENCODING 226
SWIDTH 450 0
DWIDTH 5 0
BBX 5 7 0 0
BITMAP
30
08
08
10
30
50
90
ENDCHAR

STARTCHAR daleth
ENCODING 227
SWIDTH 540 0
DWIDTH 6 0
BBX 6 7 0 0
BITMAP
7C
10
10
10
20
20
20
ENDCHAR

STARTCHAR he
ENCODING 228
SWIDTH 540 0
DWIDTH 6 0
BBX 6 7 0 0
BITMAP
38
04
24
24
48
48
48
ENDCHAR

STARTCHAR waw
ENCODING 229
SWIDTH 270 0
DWIDTH 3 0
BBX 2 7 1 0
BITMAP
40
40
40
40
80
80
80
ENDCHAR

STARTCHAR zayin
ENCODING 230
SWIDTH 360 0
DWIDTH 4 0
BBX 3 7 1 0
BITMAP
E0
40
40
40
80
80
80
ENDCHAR

STARTCHAR het
ENCODING 231
SWIDTH 540 0
DWIDTH 6 0
BBX 6 7 0 0
BITMAP
38
24
24
24
48
48
48
ENDCHAR

STARTCHAR teth
ENCODING 232
SWIDTH 630 0
DWIDTH 7 0
BBX 7 7 0 0
BITMAP
4C
54
44
84
88
88
70
ENDCHAR

STARTCHAR yod
ENCODING 233
SWIDTH 270 0
DWIDTH 3 0
BBX 2 5 1 2
BITMAP
40
40
40
80
80
ENDCHAR

STARTCHAR kaphfinal
ENCODING 234
SWIDTH 540 0
DWIDTH 6 0
BBX 6 9 0 -2
BITMAP
78
04
04
04
08
08
08
10
10
ENDCHAR

STARTCHAR kaph
ENCODING 235
SWIDTH 540 0
DWIDTH 6 0
BBX 6 7 0 0
BITMAP
38
04
04
08
08
10
E0
ENDCHAR

STARTCHAR lamed
ENCODING 236
SWIDTH 540 0
DWIDTH 6 0
BBX 6 9 0 0
BITMAP
40
40
7C
04
04
08
10
20
40
ENDCHAR

STARTCHAR memfinal
ENCODING 237
SWIDTH 540 0
DWIDTH 6 0
BBX 6 7 0 0
BITMAP
78
44
44
44
88
88
F8
ENDCHAR

STARTCHAR mem
ENCODING 238
SWIDTH 720 0
DWIDTH 8 0
BBX 7 7 1 0
BITMAP
4C
52
62
42
42
84
98
ENDCHAR

STARTCHAR nunfinal
ENCODING 239
SWIDTH 270 0
DWIDTH 3 0
BBX 3 9 0 -2
BITMAP
20
20
20
40
40
40
40
80
80
ENDCHAR

STARTCHAR nun
ENCODING 240
SWIDTH 450 0
DWIDTH 5 0
BBX 5 7 0 0
BITMAP
30
08
08
08
10
10
F0
ENDCHAR

STARTCHAR samekh
ENCODING 241
SWIDTH 720 0
DWIDTH 8 0
BBX 8 7 0 0
BITMAP
1E
21
21
42
42
44
38
ENDCHAR

STARTCHAR ayin
ENCODING 242
SWIDTH 540 0
DWIDTH 6 0
BBX 6 8 0 -1
BITMAP
24
24
24
24
28
28
30
C0
ENDCHAR

STARTCHAR pefinal
ENCODING 243
SWIDTH 540 0
DWIDTH 6 0
BBX 6 9 0 -2
BITMAP
78
44
84
C4
08
08
08
10
10
ENDCHAR

STARTCHAR pe
ENCODING 244
SWIDTH 630 0
DWIDTH 7 0
BBX 7 7 0 0
BITMAP
38
24
44
64
08
18
E0
ENDCHAR

STARTCHAR zadikfinal
ENCODING 245
SWIDTH 450 0
DWIDTH 5 0
BBX 5 9 0 -2
BITMAP
88
88
90
E0
80
80
80
80
80
ENDCHAR

STARTCHAR zadik
ENCODING 246
SWIDTH 630 0
DWIDTH 7 0
BBX 7 7 0 0
BITMAP
22
22
14
14
08
08
F8
ENDCHAR

STARTCHAR kof
ENCODING 247
SWIDTH 630 0
DWIDTH 7 0
BBX 7 9 0 -2
BITMAP
7E
02
24
24
48
50
50
80
80
ENDCHAR

STARTCHAR resh
ENCODING 248
SWIDTH 450 0
DWIDTH 5 0
BBX 5 7 0 0
BITMAP
70
08
08
08
10
10
10
ENDCHAR

STARTCHAR shin
ENCODING 249
SWIDTH 810 0
DWIDTH 9 0
BBX 9 7 0 0
BITMAP
2480
2480
2880
4900
7100
4200
3C00
ENDCHAR

STARTCHAR taf
ENCODING 250
SWIDTH 630 0
DWIDTH 7 0
BBX 7 7 0 0
BITMAP
3C
12
12
12
24
24
E4
ENDCHAR
ENDFONT
